PathFileType	4	(X/Y/Z)	./resultDataOpenSim/trcMotMarkerGrf/sub06/qtm-02-05.trc
DataRate	CameraRate	NumFrames	NumMarkers	Units	OrigDataRate	OrigDataStartFrame	OrigNumFrames
250.000000	250.000000	9	24	m	250.000000	182	484
Frame#	Time	L.Toe.Tip			R.Toe.Tip			L.Ankle.Lat			R.Ankle.Lat			L.Ankle.Med			R.Ankle.Med			L.Heel			R.Heel			L.Knee.Lat			R.Knee.Lat			L.Knee.Med			R.Knee.Med			L.Thigh.Upper			R.Thigh.Upper			L.ASIS			R.ASIS			V.Sacral			L.Acromium			R.Acromium			C7			L.Elbow			R.Elbow			L.Wrist.Lat			R.Wrist.Lat
		X1	Y1	Z1	X2	Y2	Z2	X3	Y3	Z3	X4	Y4	Z4	X5	Y5	Z5	X6	Y6	Z6	X7	Y7	Z7	X8	Y8	Z8	X9	Y9	Z9	X10	Y10	Z10	X11	Y11	Z11	X12	Y12	Z12	X13	Y13	Z13	X14	Y14	Z14	X15	Y15	Z15	X16	Y16	Z16	X17	Y17	Z17	X18	Y18	Z18	X19	Y19	Z19	X20	Y20	Z20	X21	Y21	Z21	X22	Y22	Z22	X23	Y23	Z23	X24	Y24	Z24

182	0.724	0.037314154	0.01020654	-0.048282555	-0.49740332	0.088468976	0.10280044	-0.085609641	0.041103471	-0.072257956	-0.51341948	0.22597151	0.13247947	-0.086018285	0.056127081	0.014848273	-0.47359572	0.21751073	0.052149647	-0.16181504	0.015172125	-0.02822966	-0.54148107	0.2697712	0.070206604	-0.008119261	0.40635288	-0.099333302	-0.16774998	0.3691639	0.18094906	-0.034906115	0.40620588	0.020290066	-0.16649131	0.35418745	0.046322184	-0.14282449	0.7797616	-0.16782258	-0.22197607	0.73245413	0.16484031	-0.08807667	0.81709807	-0.1087651	-0.12198976	0.79455916	0.1345897	-0.29241714	0.88055214	-0.00071792993	-0.16506886	1.2780751	-0.19020404	-0.18821465	1.2852142	0.17289073	-0.2521653	1.3204662	-0.016108169	-0.24452072	0.97222995	-0.22960942	-0.26312192	0.97338997	0.2406801	-0.14442001	0.75516767	-0.28081443	-0.093294294	0.7955836	0.26850568
183	0.728	0.037271854	0.010202885	-0.048308836	-0.48028228	0.089266136	0.10369015	-0.085636555	0.041147779	-0.072255446	-0.49843282	0.22654391	0.13270578	-0.086048692	0.056209645	0.014829916	-0.45863373	0.21846568	0.052565904	-0.16185818	0.015248163	-0.028230594	-0.5275874	0.26976786	0.070355253	-0.0065987486	0.40625382	-0.099141495	-0.1544268	0.37197079	0.18123791	-0.033971618	0.40641973	0.020399438	-0.15307691	0.35684913	0.046628794	-0.13817665	0.78076759	-0.16816454	-0.21366063	0.73545244	0.16545738	-0.08248692	0.81811713	-0.10936293	-0.11609041	0.79648885	0.13445197	-0.28635922	0.8825248	-0.00076824411	-0.15822739	1.2800829	-0.19005713	-0.18225062	1.2870906	0.17301351	-0.24566667	1.3223135	-0.01610599	-0.23629181	0.97363782	-0.23013405	-0.25822047	0.97553963	0.24005761	-0.13352872	0.75760199	-0.2805108	-0.090727393	0.79589907	0.26825744
184	0.732	0.037237261	0.010214315	-0.04833586	-0.46301962	0.089922933	0.10457036	-0.085659627	0.04119727	-0.072240874	-0.48338637	0.22683482	0.13294938	-0.086085066	0.05628728	0.014821571	-0.44351258	0.21911605	0.053037103	-0.16190007	0.015326086	-0.028228889	-0.51359389	0.26950079	0.070562567	-0.0051989072	0.40621555	-0.098900436	-0.14120172	0.37497477	0.18145834	-0.033073254	0.40662622	0.020554001	-0.13963061	0.35956754	0.046864817	-0.13362326	0.78177489	-0.16847833	-0.20657558	0.73795318	0.16573978	-0.076939141	0.81919655	-0.10997969	-0.1101789	0.798444	0.13427024	-0.28032444	0.88446312	-0.0012823566	-0.15146209	1.2821353	-0.18989227	-0.17627005	1.2889904	0.17313867	-0.23916776	1.3242006	-0.016079497	-0.22807056	0.97509349	-0.23065406	-0.25338704	0.97776339	0.23948014	-0.12260422	0.76012534	-0.28015987	-0.088188528	0.79630561	0.26802512
185	0.736	0.037207624	0.010231353	-0.048356221	-0.44555458	0.090458053	0.10544717	-0.085679593	0.041255034	-0.072216346	-0.46830167	0.22686066	0.13318911	-0.086135053	0.056364489	0.014818638	-0.42829393	0.21950974	0.053457384	-0.16194014	0.015404645	-0.028222363	-0.49957493	0.26896981	0.070815392	-0.0039243209	0.40623093	-0.098626039	-0.12806839	0.37815541	0.1816088	-0.032206052	0.40682186	0.020746077	-0.12612121	0.36238323	0.047077044	-0.12891614	0.78281153	-0.1688392	-0.20136663	0.73959245	0.16522806	-0.071497656	0.8203299	-0.110596	-0.10425832	0.80041998	0.13404173	-0.27457902	0.88641296	-0.0021117101	-0.14475969	1.2842273	-0.18970771	-0.17025821	1.2909046	0.17325823	-0.23266408	1.3261177	-0.016028281	-0.21985962	0.97658656	-0.23116715	-0.24859921	0.9800477	0.23894961	-0.11165433	0.76273302	-0.27976777	-0.085614446	0.79679671	0.26780818
186	0.74	0.037177374	0.010243829	-0.048365816	-0.42783842	0.090887533	0.10634117	-0.085698181	0.04132481	-0.072188077	-0.45319418	0.22663057	0.13343106	-0.086200498	0.056446182	0.014818318	-0.41305527	0.21970668	0.053722488	-0.16197342	0.01548032	-0.028197801	-0.48560946	0.26817121	0.071096072	-0.0027625896	0.4062889	-0.098326755	-0.11502388	0.38149574	0.18169207	-0.031382412	0.4070019	0.020963238	-0.11260883	0.3653427	0.047266334	-0.12407275	0.7838856	-0.16928524	-0.19698156	0.74079533	0.1642796	-0.066139786	0.8215109	-0.11121735	-0.098327808	0.80241227	0.13376473	-0.26925818	0.88846054	-0.0030222228	-0.13809825	1.2863552	-0.18949883	-0.1642034	1.2928267	0.17336928	-0.22615456	1.3280463	-0.015952864	-0.21167086	0.97811196	-0.23167061	-0.24384026	0.98238145	0.23846031	-0.10068249	0.76541671	-0.27934446	-0.083013184	0.7973736	0.26760088
187	0.744	0.037143665	0.010250518	-0.048370415	-0.40984854	0.091209864	0.10726518	-0.085719089	0.041409408	-0.072163992	-0.43807454	0.22612494	0.13370061	-0.086274976	0.056535477	0.014820292	-0.39784892	0.21973771	0.053796588	-0.16199299	0.01555084	-0.028137929	-0.47173416	0.26709532	0.071386063	-0.0017037267	0.40636936	-0.098013784	-0.10207145	0.38498441	0.18171688	-0.03065133	0.40714662	0.021175641	-0.099219006	0.36845233	0.047355634	-0.11927897	0.78498727	-0.16976839	-0.19201495	0.74219743	0.16358372	-0.060764995	0.8227393	-0.11186973	-0.092387545	0.80441504	0.13343944	-0.26414729	0.89062807	-0.0037248156	-0.13146361	1.2885159	-0.18926636	-0.15809995	1.2947485	0.17346963	-0.21963825	1.3299718	-0.015857301	-0.20351622	0.97967279	-0.23215831	-0.23909874	0.98475866	0.23799878	-0.089678746	0.76817099	-0.27889627	-0.080417463	0.79803482	0.26739842
188	0.748	0.037106953	0.010256322	-0.04837739	-0.39160728	0.091396534	0.10819735	-0.085747619	0.041509012	-0.072147728	-0.42294368	0.22531137	0.13401067	-0.086349088	0.056633486	0.014825521	-0.38268797	0.21960183	0.053713146	-0.16199927	0.015619182	-0.028043376	-0.45789657	0.26570424	0.071652789	-0.00075047219	0.40645011	-0.097705228	-0.089216527	0.38860656	0.1816907	-0.030083484	0.40722495	0.021345193	-0.08601349	0.37167509	0.047254221	-0.11462304	0.7861112	-0.17020279	-0.18608784	0.74403112	0.16342949	-0.055298312	0.82402604	-0.11255306	-0.086445228	0.80642103	0.13306307	-0.25879949	0.89279288	-0.0039691466	-0.1248534	1.2907035	-0.18901577	-0.15194631	1.2966618	0.17355565	-0.21312022	1.33189	-0.015744374	-0.19539161	0.98127449	-0.23263605	-0.23438549	0.98717168	0.23755506	-0.078633309	0.77100002	-0.27841792	-0.077845637	0.79877243	0.26720185
189	0.752	0.037068385	0.010265254	-0.048389692	-0.37316025	0.091421783	0.1091024	-0.085787603	0.041619049	-0.072136101	-0.40777778	0.22419636	0.13433578	-0.086412051	0.056740577	0.014834087	-0.36751505	0.21929343	0.053577372	-0.1620056	0.01569218	-0.027941081	-0.44393082	0.26391852	0.071834295	0.00010328725	0.40651797	-0.09741506	-0.076461892	0.39234079	0.18161662	-0.029708052	0.40722595	0.021460184	-0.07291473	0.37499257	0.046976989	-0.11003849	0.78725742	-0.17055635	-0.17961206	0.74617613	0.16368807	-0.049750926	0.8253838	-0.11322174	-0.080512622	0.80842574	0.1326296	-0.25301218	0.89479285	-0.0037834221	-0.11826823	1.2929062	-0.18875186	-0.14574009	1.2985612	0.17362656	-0.20660787	1.3337996	-0.015613618	-0.18727923	0.98291544	-0.23313446	-0.22973713	0.98960559	0.23712694	-0.06755873	0.77390835	-0.27789603	-0.075298234	0.79957652	0.26701631
190	0.756	0.037028774	0.010277052	-0.048407332	-0.35452981	0.091289139	0.10997104	-0.08583775	0.041732626	-0.072122049	-0.39251538	0.22285493	0.13462138	-0.086454913	0.056857531	0.014844102	-0.35218834	0.21880602	0.053526785	-0.1620298	0.015773255	-0.027861137	-0.42963071	0.26165777	0.071865528	0.00088977716	0.40657231	-0.097138973	-0.063807481	0.39616648	0.18149571	-0.029486539	0.40717161	0.021540104	-0.059801923	0.37845449	0.046643377	-0.10544722	0.78841923	-0.1708629	-0.17297872	0.74845159	0.16412967	-0.044170254	0.82681346	-0.11383126	-0.074593378	0.81042942	0.13213806	-0.24701443	0.89659791	-0.0034859825	-0.11170635	1.2951102	-0.18847728	-0.13948335	1.3004405	0.17368653	-0.20010332	1.3356942	-0.01546435	-0.17916782	0.98457613	-0.23368092	-0.22516519	0.99204367	0.23671259	-0.056479643	0.7768871	-0.27732488	-0.072764942	0.80043818	0.26684925
